<svg width="1920" height="12" viewBox="0 0 1920 12" fill="none" xmlns="http://www.w3.org/2000/svg">
<path opacity="0.6" d="M-131 1C-122.756 1 -122.756 11 -114.512 11C-106.268 11 -106.268 1 -98.0242 1C-89.7802 1 -89.7802 11 -81.5555 11C-73.3113 11 -73.3113 1 -65.0869 1C-56.8428 1 -56.8428 11 -48.6184 11C-40.3743 11 -40.3743 1 -32.1307 1C-23.8866 1 -23.8866 11 -15.6424 11C-7.3989 11 -7.3989 1 0.845245 1C9.08939 1 9.08938 11 17.3335 11C25.5771 11 25.5771 1 33.8212 1C42.0652 1 42.0652 11 50.3091 11C58.5531 11 58.5531 1 66.7971 1C75.041 1 75.041 11 83.2657 11C91.5099 11 91.5099 1 99.7343 1C107.978 1 107.978 11 116.203 11C124.447 11 124.447 1 132.69 1C140.935 1 140.935 11 149.179 11C157.422 11 157.422 1 165.666 1C173.911 1 173.911 11 182.155 11C190.398 11 190.398 1 198.642 1C206.886 1 206.886 11 215.13 11C223.374 11 223.374 1 231.618 1C239.862 1 239.862 11 248.087 11C256.331 11 256.331 1 264.556 1C272.8 1 272.8 11 281.024 11C289.268 11 289.268 1 297.512 1M298 1C306.244 1 306.244 11 314.488 11C322.732 11 322.732 1 330.976 1C339.22 1 339.22 11 347.444 11C355.689 11 355.689 1 363.913 1C372.157 1 372.157 11 380.382 11C388.626 11 388.626 1 396.869 1C405.113 1 405.113 11 413.358 11C421.601 11 421.601 1 429.845 1C438.089 1 438.089 11 446.333 11C454.577 11 454.577 1 462.821 1C471.065 1 471.065 11 479.309 11C487.553 11 487.553 1 495.797 1C504.041 1 504.041 11 512.266 11C520.51 11 520.51 1 528.734 1C536.978 1 536.978 11 545.203 11C553.447 11 553.447 1 561.69 1C569.935 1 569.935 11 578.179 11C586.422 11 586.422 1 594.666 1C602.911 1 602.911 11 611.155 11C619.398 11 619.398 1 627.642 1C635.886 1 635.886 11 644.13 11C652.374 11 652.374 1 660.618 1C668.862 1 668.862 11 677.087 11C685.331 11 685.331 1 693.555 1C701.8 1 701.8 11 710.024 11C718.268 11 718.268 1 726.512 1C734.756 1 734.756 11 743 11C751.244 11 751.244 1 759.488 1C767.732 1 767.732 11 775.976 11C784.22 11 784.22 1 792.444 1C800.689 1 800.689 11 808.913 11C817.157 11 817.157 1 825.382 1C833.626 1 833.626 11 841.869 11C850.113 11 850.113 1 858.358 1C866.601 1 866.601 11 874.845 11C883.089 11 883.089 1 891.333 1C899.577 1 899.577 11 907.821 11C916.065 11 916.065 1 924.309 1C932.553 1 932.553 11 940.797 11C949.041 11 949.041 1 957.266 1C965.51 1 965.51 11 973.734 11C981.978 11 981.978 1 990.203 1C998.447 1 998.447 11 1006.69 11C1014.93 11 1014.93 1 1023.18 1C1031.42 1 1031.42 11 1039.67 11C1047.91 11 1047.91 1 1056.15 1C1064.4 1 1064.4 11 1072.64 11C1080.89 11 1080.89 1 1089.13 1C1097.37 1 1097.37 11 1105.62 11C1113.86 11 1113.86 1 1122.09 1C1130.33 1 1130.33 11 1138.56 11C1146.8 11 1146.8 1 1155.02 1C1163.27 1 1163.27 11 1171.51 11C1179.76 11 1179.76 1 1188 1M1189 1C1197.24 1 1197.24 11 1205.49 11C1213.73 11 1213.73 1 1221.98 1C1230.22 1 1230.22 11 1238.44 11C1246.69 11 1246.69 1 1254.91 1C1263.16 1 1263.16 11 1271.38 11C1279.63 11 1279.63 1 1287.87 1C1296.11 1 1296.11 11 1304.36 11C1312.6 11 1312.6 1 1320.85 1C1329.09 1 1329.09 11 1337.33 11C1345.58 11 1345.58 1 1353.82 1C1362.07 1 1362.07 11 1370.31 11C1378.55 11 1378.55 1 1386.8 1C1395.04 1 1395.04 11 1403.27 11C1411.51 11 1411.51 1 1419.73 1C1427.98 1 1427.98 11 1436.2 11C1444.45 11 1444.45 1 1452.69 1C1460.93 1 1460.93 11 1469.18 11C1477.42 11 1477.42 1 1485.67 1C1493.91 1 1493.91 11 1502.15 11C1510.4 11 1510.4 1 1518.64 1C1526.89 1 1526.89 11 1535.13 11C1543.37 11 1543.37 1 1551.62 1C1559.86 1 1559.86 11 1568.09 11C1576.33 11 1576.33 1 1584.56 1C1592.8 1 1592.8 11 1601.02 11C1609.27 11 1609.27 1 1617.51 1C1625.76 1 1625.76 11 1634 11M1635 11C1643.24 11 1643.24 1 1651.49 1C1659.73 1 1659.73 11 1667.98 11C1676.22 11 1676.22 1 1684.44 1C1692.69 1 1692.69 11 1700.91 11C1709.16 11 1709.16 1 1717.38 1C1725.63 1 1725.63 11 1733.87 11C1742.11 11 1742.11 1 1750.36 1C1758.6 1 1758.6 11 1766.85 11C1775.09 11 1775.09 1 1783.33 1C1791.58 1 1791.58 11 1799.82 11C1808.07 11 1808.07 1 1816.31 1C1824.55 1 1824.55 11 1832.8 11C1841.04 11 1841.04 1 1849.27 1C1857.51 1 1857.51 11 1865.73 11C1873.98 11 1873.98 1 1882.2 1C1890.45 1 1890.45 11 1898.69 11C1906.93 11 1906.93 1 1915.18 1C1923.42 1 1923.42 11 1931.67 11C1939.91 11 1939.91 1 1948.15 1C1956.4 1 1956.4 11 1964.64 11C1972.89 11 1972.89 1 1981.13 1C1989.37 1 1989.37 11 1997.62 11C2005.86 11 2005.86 1 2014.09 1C2022.33 1 2022.33 11 2030.56 11C2038.8 11 2038.8 1 2047.02 1C2055.27 1 2055.27 11 2063.51 11C2071.76 11 2071.76 1 2080 1" stroke="#F5F6F7" stroke-miterlimit="10" stroke-linecap="square"/>
</svg>
